<?xml version="1.0" encoding="utf-8"?>
<!-- Generator: Adobe Illustrator 27.5.0, SVG Export Plug-In . SVG Version: 6.00 Build 0)  -->
<svg version="1.1" id="Layer_1" xmlns="http://www.w3.org/2000/svg" xmlns:xlink="http://www.w3.org/1999/xlink" x="0px" y="0px"
	 viewBox="0 0 450 450" style="enable-background:new 0 0 450 450;" xml:space="preserve">
<g>
	<rect style="fill:#FFE4A8;" width="450" height="450"/>
	<rect y="215" style="fill:#FFCB64;" width="450" height="235"/>
	<rect y="0.193" style="fill:#FFCB64;" width="450" height="23"/>
</g>
<g>
	<path style="fill:#77685D;" d="M23.689,48.611v16.1v5.006v12.056v5.006v12.056v5.006v12.056v5.006v12.056v5.006v12.056v5.006
		v12.056v5.006v12.056v5.006v12.056v5.006v11.951h7.143v-11.951h63.434v11.951h7.143v-11.951v-5.006v-12.056v-5.006v-12.056v-5.006
		V155.03v-5.006v-12.056v-5.006v-12.056v-5.006v-12.056v-5.006V86.78v-5.006V69.717v-5.006v-16.1c0-1.165-0.896-2.109-2-2.109
		h-3.143c-1.105,0-2,0.944-2,2.109v16.1H30.831v-16.1c0-1.165-0.896-2.109-2-2.109h-3.143
		C24.583,46.502,23.689,47.446,23.689,48.611z M30.831,189.155h63.434v12.056H30.831V189.155z M30.831,172.092h63.434v12.056H30.831
		V172.092z M30.831,155.03h63.434v12.056H30.831V155.03z M30.831,137.967h63.434v12.056H30.831V137.967z M30.831,120.905h63.434
		v12.056H30.831V120.905z M30.831,103.842h63.434v12.056H30.831V103.842z M30.831,86.78h63.434v12.056H30.831V86.78z M30.831,69.717
		h63.434v12.056H30.831V69.717z"/>
	<rect x="24.765" y="63.711" style="fill:#92B6CC;" width="77.719" height="5.006"/>
	<rect x="24.765" y="200.211" style="fill:#92B6CC;" width="77.719" height="5.006"/>
	<rect x="24.765" y="183.148" style="fill:#92B6CC;" width="77.719" height="5.006"/>
	<rect x="24.765" y="166.086" style="fill:#92B6CC;" width="77.719" height="5.006"/>
	<rect x="24.765" y="149.023" style="fill:#92B6CC;" width="77.719" height="5.006"/>
	<rect x="24.765" y="131.961" style="fill:#92B6CC;" width="77.719" height="5.006"/>
	<rect x="24.765" y="114.898" style="fill:#92B6CC;" width="77.719" height="5.006"/>
	<rect x="24.765" y="97.836" style="fill:#92B6CC;" width="77.719" height="5.006"/>
	<rect x="24.765" y="80.773" style="fill:#92B6CC;" width="77.719" height="5.006"/>
	<path style="fill:#6C9FCC;" d="M97.341,45.502h3.143c1.104,0,2,0.944,2,2.109v169.558h-7.143V47.611
		C95.341,46.446,96.236,45.502,97.341,45.502z"/>
	<path style="fill:#6C9FCC;" d="M26.765,45.502h3.143c1.104,0,2,0.944,2,2.109v169.558h-7.143V47.611
		C24.765,46.446,25.66,45.502,26.765,45.502z"/>
</g>
<g>
	<rect x="157.156" y="53.036" style="fill:#77685D;" width="135.488" height="122.5"/>
	<g>
		<rect x="157.99" y="52.203" style="fill:#7CB5ED;" width="135.488" height="122.5"/>
		<g>
			<polygon style="fill:#C1DDE8;" points="287.949,57.202 287.949,67.575 277.576,57.202 			"/>
			<polygon style="fill:#C1DDE8;" points="163.52,139.942 193.281,169.705 189.373,169.705 163.52,143.851 			"/>
			<polygon style="fill:#C1DDE8;" points="163.52,61.091 272.133,169.705 254.535,169.705 163.52,78.688 			"/>
			<polygon style="fill:#C1DDE8;" points="186.346,57.202 287.949,158.803 287.949,165.97 179.18,57.202 			"/>
			<polygon style="fill:#C1DDE8;" points="209.807,57.202 287.949,135.347 287.949,152.941 192.211,57.202 			"/>
			<polygon style="fill:#C1DDE8;" points="238.479,57.202 287.949,106.672 287.949,115.796 229.355,57.202 			"/>
			<polygon style="fill:#C1DDE8;" points="163.52,149.717 183.506,169.705 176.34,169.705 163.52,156.883 			"/>
			<polygon style="fill:#C1DDE8;" points="163.52,111.272 221.951,169.705 212.832,169.705 163.52,120.391 			"/>
			<polygon style="fill:#FFFFFF;" points="277.576,57.202 287.949,67.575 287.949,106.672 238.479,57.202 			"/>
			<polygon style="fill:#FFFFFF;" points="229.355,57.202 287.949,115.796 287.949,135.347 209.807,57.202 			"/>
			<polygon style="fill:#FFFFFF;" points="163.52,120.391 212.832,169.705 193.281,169.705 163.52,139.942 			"/>
			<polygon style="fill:#FFFFFF;" points="163.52,78.688 254.535,169.705 221.951,169.705 163.52,111.272 			"/>
			<polygon style="fill:#FFFFFF;" points="163.52,57.202 179.18,57.202 287.949,165.97 287.949,169.705 272.133,169.705 
				163.52,61.091 			"/>
			<polygon style="fill:#FFFFFF;" points="192.211,57.202 287.949,152.941 287.949,158.803 186.346,57.202 			"/>
			<polygon style="fill:#FFFFFF;" points="163.52,156.883 176.34,169.705 163.52,169.705 			"/>
			<polygon style="fill:#FFFFFF;" points="163.52,143.851 189.373,169.705 183.506,169.705 163.52,149.717 			"/>
		</g>
	</g>
</g>
<g>
	<path style="opacity:0.2;fill:#35312D;" d="M139.619,167.507h-6.811c-5.522,0-10,4.477-10,10V215l13.512,12.634
		c4.029,3.776,11.773,6.839,17.296,6.839h6.812c5.522,0,6.681-3.004,2.585-6.709l-5.978-5.409
		c-4.095-3.706-7.415-11.186-7.415-16.71v-28.139C149.619,171.984,145.142,167.507,139.619,167.507z"/>
	<g>
		<path style="fill:#FFFFFF;" d="M144.368,147.687h-0.753c-2.086,0-3.777,1.691-3.777,3.777v79.232c0,2.086,1.691,3.776,3.777,3.776
			h14.375v-86.786H144.368z"/>
		<path style="fill:#C6C1BD;" d="M146.775,159.355c-1.883,0-3.408,1.525-3.408,3.407v32.653c0,1.882,1.525,3.407,3.408,3.407h11.215
			v-39.467H146.775z"/>
		<path style="fill:#68605A;" d="M145.553,177.839v1.521c0,2.831,2.295,5.126,5.127,5.126v-11.772
			C147.848,172.713,145.553,175.008,145.553,177.839z"/>
		<path style="fill:#35312D;" d="M155.805,179.359v-1.521c0-2.831-2.295-5.126-5.125-5.126v11.772
			C153.51,184.485,155.805,182.19,155.805,179.359z"/>
		<path style="fill:#C6C1BD;" d="M176.142,230.696v-79.232c0-2.086-1.691-3.777-3.776-3.777h-0.754H157.99v86.786h14.375
			C174.45,234.473,176.142,232.782,176.142,230.696z"/>
		<path style="fill:#68605A;" d="M172.613,195.415v-32.653c0-1.881-1.525-3.407-3.408-3.407H157.99v39.467h11.215
			C171.088,198.822,172.613,197.297,172.613,195.415z"/>
		<path style="fill:#C6C1BD;" d="M160.176,177.839v1.521c0,2.831,2.295,5.126,5.125,5.126v-11.772
			C162.471,172.713,160.176,175.008,160.176,177.839z"/>
		<path style="fill:#35312D;" d="M170.427,179.359v-1.521c0-2.831-2.294-5.126-5.126-5.126v11.772
			C168.133,184.485,170.427,182.19,170.427,179.359z"/>
		<path style="fill:#68605A;" d="M157.99,144.335h-8.268h-1.136c-2.055,0-3.772,1.433-4.218,3.352h13.622V144.335z"/>
		<path style="fill:#FFFFFF;" d="M157.99,142.658h-5.709c-1.246,0-2.289,0.716-2.56,1.676h8.268V142.658z"/>
		<path style="fill:#8AB7DD;" d="M149.536,107.128c-2.437,0-4.411,1.975-4.411,4.411v23.156c0,4.426,5.76,7.963,12.865,7.963v-35.53
			H149.536z"/>
		<path style="fill:#35312D;" d="M157.99,147.687h13.621c-0.446-1.92-2.163-3.352-4.219-3.352h-1.135h-8.268V147.687z"/>
		<path style="fill:#8E8985;" d="M166.258,144.335c-0.271-0.96-1.314-1.676-2.561-1.676h-5.707v1.676H166.258z"/>
		<path style="fill:#518DC9;" d="M170.854,134.756c0-0.061,0-23.217,0-23.217c0-2.436-1.975-4.411-4.41-4.411h-8.453v35.53
			C165.094,142.658,170.854,139.121,170.854,134.756z"/>
		<polygon style="fill:#FFFFFF;" points="161.208,167.126 165.295,171.212 165.295,167.126 		"/>
		<polygon style="fill:#C6C1BD;" points="168.945,167.126 165.295,167.126 165.295,171.212 169.381,167.126 		"/>
		<path style="fill:#FFFFFF;" d="M163.203,177.373c-1.072,0-1.942,0.87-1.942,1.942c0,1.072,0.87,1.941,1.942,1.941h2.092v-3.883
			H163.203z"/>
		<path style="fill:#C6C1BD;" d="M169.328,179.314c0-1.072-0.869-1.942-1.941-1.942h-2.092v3.883h2.092
			C168.459,181.256,169.328,180.387,169.328,179.314z"/>
		<rect x="164.383" y="176.146" style="fill:#C6C1BD;" width="0.912" height="2.454"/>
		<rect x="165.295" y="176.146" style="fill:#35312D;" width="0.91" height="2.454"/>
		<polygon style="fill:#FFFFFF;" points="163.223,170.654 163.223,176.146 164.383,176.146 165.295,176.146 165.295,170.654 		"/>
		<polygon style="fill:#C6C1BD;" points="165.295,176.146 166.205,176.146 167.365,176.146 167.365,170.654 165.295,170.654 		"/>
		<rect x="163.223" y="169.169" style="fill:#8AB7DD;" width="2.072" height="1.485"/>
		<rect x="165.295" y="169.169" style="fill:#518DC9;" width="2.07" height="1.485"/>
		<polygon style="fill:#FFFFFF;" points="146.6,167.126 150.686,171.212 150.686,167.126 		"/>
		<polygon style="fill:#ECE6E2;" points="154.338,167.126 150.686,167.126 150.686,171.212 154.771,167.126 		"/>
		<path style="fill:#FFFFFF;" d="M148.594,177.373c-1.072,0-1.941,0.87-1.941,1.942c0,1.072,0.869,1.941,1.941,1.941h2.092v-3.883
			H148.594z"/>
		<path style="fill:#ECE6E2;" d="M154.72,179.314c0-1.072-0.87-1.942-1.942-1.942h-2.092v3.883h2.092
			C153.85,181.256,154.72,180.387,154.72,179.314z"/>
		<rect x="149.773" y="176.146" style="fill:#68605A;" width="0.912" height="2.454"/>
		<rect x="150.686" y="176.146" style="fill:#35312D;" width="0.91" height="2.454"/>
		<polygon style="fill:#FFFFFF;" points="148.613,170.654 148.613,176.146 149.773,176.146 150.686,176.146 150.686,170.654 		"/>
		<polygon style="fill:#ECE6E2;" points="150.686,176.146 151.596,176.146 152.756,176.146 152.756,170.654 150.686,170.654 		"/>
		<rect x="148.613" y="169.169" style="fill:#E28595;" width="2.072" height="1.485"/>
		<rect x="150.686" y="169.169" style="fill:#C14266;" width="2.07" height="1.485"/>
	</g>
</g>
<g>
	<rect x="325.132" y="70.786" style="fill:#77685D;" width="93.047" height="87"/>
	<g>
		<rect x="325.966" y="69.953" style="fill:#F5F5F5;" width="93.047" height="87"/>
		<rect x="368.417" y="74.66" style="fill:#F5F5F5;" width="8.145" height="77.585"/>
		<g style="opacity:0.5;">
			<polygon style="fill:#308EED;" points="376.562,81.331 413.485,118.253 413.485,121.897 376.562,84.975 			"/>
			<polygon style="fill:#308EED;" points="376.562,135.001 393.806,152.245 391.82,152.245 376.562,136.988 			"/>
			<polygon style="fill:#308EED;" points="376.562,74.66 381.818,74.66 413.485,106.327 413.485,115.272 376.562,78.35 			"/>
			<polygon style="fill:#308EED;" points="376.562,94.913 413.485,131.835 413.485,140.783 376.562,103.86 			"/>
			<polygon style="fill:#308EED;" points="396.394,74.66 413.485,91.751 413.485,96.389 391.757,74.66 			"/>
			<polygon style="fill:#308EED;" points="376.562,120.424 408.382,152.245 403.745,152.245 376.562,125.062 			"/>
			<polygon style="fill:#308EED;" points="376.562,139.971 388.837,152.245 385.193,152.245 376.562,143.614 			"/>
			<polygon style="fill:#C1DDE8;" points="413.485,74.66 413.485,91.751 396.394,74.66 			"/>
			<polygon style="fill:#C1DDE8;" points="391.757,74.66 413.485,96.389 413.485,106.327 381.818,74.66 			"/>
			<polygon style="fill:#C1DDE8;" points="376.562,125.062 403.745,152.245 393.806,152.245 376.562,135.001 			"/>
			<polygon style="fill:#C1DDE8;" points="376.562,103.86 413.485,140.783 413.485,152.245 408.382,152.245 376.562,120.424 			"/>
			<polygon style="fill:#C1DDE8;" points="376.562,84.975 413.485,121.897 413.485,131.835 376.562,94.913 			"/>
			<polygon style="fill:#C1DDE8;" points="376.562,78.35 413.485,115.272 413.485,118.253 376.562,81.331 			"/>
			<polygon style="fill:#C1DDE8;" points="376.562,143.614 385.193,152.245 376.562,152.245 			"/>
			<polygon style="fill:#C1DDE8;" points="376.562,136.988 391.82,152.245 388.837,152.245 376.562,139.971 			"/>
		</g>
		<g style="opacity:0.5;">
			<polygon style="fill:#308EED;" points="331.494,81.331 368.417,118.253 368.417,121.897 331.494,84.975 			"/>
			<polygon style="fill:#308EED;" points="331.494,135.001 348.74,152.245 346.751,152.245 331.494,136.988 			"/>
			<polygon style="fill:#308EED;" points="331.494,74.66 336.751,74.66 368.417,106.327 368.417,115.272 331.494,78.35 			"/>
			<polygon style="fill:#308EED;" points="331.494,94.913 368.417,131.835 368.417,140.783 331.494,103.86 			"/>
			<polygon style="fill:#308EED;" points="351.326,74.66 368.417,91.751 368.417,96.389 346.689,74.66 			"/>
			<polygon style="fill:#308EED;" points="331.494,120.424 363.316,152.245 358.679,152.245 331.494,125.062 			"/>
			<polygon style="fill:#308EED;" points="331.494,139.971 343.769,152.245 340.126,152.245 331.494,143.614 			"/>
			<polygon style="fill:#C1DDE8;" points="368.417,74.66 368.417,91.751 351.326,74.66 			"/>
			<polygon style="fill:#C1DDE8;" points="346.689,74.66 368.417,96.389 368.417,106.327 336.751,74.66 			"/>
			<polygon style="fill:#C1DDE8;" points="331.494,125.062 358.679,152.245 348.74,152.245 331.494,135.001 			"/>
			<polygon style="fill:#C1DDE8;" points="331.494,103.86 368.417,140.783 368.417,152.245 363.316,152.245 331.494,120.424 			"/>
			<polygon style="fill:#C1DDE8;" points="331.494,84.975 368.417,121.897 368.417,131.835 331.494,94.913 			"/>
			<polygon style="fill:#C1DDE8;" points="331.494,78.35 368.417,115.272 368.417,118.253 331.494,81.331 			"/>
			<polygon style="fill:#C1DDE8;" points="331.494,143.614 340.126,152.245 331.494,152.245 			"/>
			<polygon style="fill:#C1DDE8;" points="331.494,136.988 346.751,152.245 343.769,152.245 331.494,139.971 			"/>
		</g>
	</g>
</g>
<g>
	<path style="opacity:0.2;fill:#39332F;" d="M105.584,294.801l-16.225-10.49h6.617h2.909L57.02,241.09
		c6.502,0.839,13.174,1.901,20.01,3.212c-0.241-0.554-0.48-1.107-0.726-1.665c-7.193-1.385-14.212-2.495-21.042-3.361l-13.98-14.434
		h7.803l-3.608-3.701H8.615H7.827H7.033H0v3.701h10.522l11.566,12.261c-4.906,0.019-9.652,0.21-14.22,0.568L0,229.22v1.498
		l6.568,7.061c-2.239,0.193-4.418,0.443-6.568,0.717v2.02c2.673-0.382,5.407-0.709,8.225-0.956l3.793,4.078h-5.31l3.428,3.702
		l3.428,3.704l3.43,3.702l3.418,3.7c0.004,0.002,3.429,3.704,3.429,3.704h45.365l-3.561-3.702l-3.561-3.702l-3.563-3.706
		l-3.559-3.699l-3.563-3.702h-5.307l-3.906-4.078c3.805,0.287,7.687,0.663,11.638,1.128l35.778,37.027H79.21l-10.492-6.845H38.871
		l2.736,6.845h-8.773L0,242.08v3.053l29.946,32.582l6.063,6.596h2.903h5.295l4.057,10.49l6.25,6.784
		c3.058,0.627,6.111,1.179,9.141,1.644l-7.813-8.429h42.17l8.235,8.58c2.169-0.449,4.197-0.979,6.09-1.587L105.584,294.801z
		 M12.109,224.843h14.604L38.98,237.67c-5.248-0.359-10.353-0.548-15.294-0.566L12.109,224.843z M44.688,243.638H13.421
		l-3.896-4.185c4.818-0.386,9.831-0.585,15.03-0.585c5.201,0,10.587,0.199,16.128,0.585L44.688,243.638z M40.48,237.777
		L28.09,224.843h10.423l13.57,14.043C48.146,238.427,44.276,238.058,40.48,237.777z"/>
	<g>
		<rect x="52.776" y="260.157" style="fill:#F5F5F5;" width="34.015" height="11.203"/>
		<rect x="86.791" y="260.157" style="fill:#C6C1BD;" width="34.012" height="11.203"/>
		<polygon style="fill:#C6C1BD;" points="69.318,165.782 69.311,220.197 67.747,220.197 67.741,165.782 		"/>
		<polygon style="fill:#8E8985;" points="105.826,165.782 105.834,220.197 104.257,220.197 104.262,165.782 		"/>
		<rect x="61.81" y="202.277" style="fill:#35312D;" width="49.954" height="6.29"/>
		<rect x="61.81" y="208.567" style="fill:#68605A;" width="49.954" height="6.287"/>
		<rect x="61.813" y="214.854" style="fill:#35312D;" width="49.951" height="6.289"/>
		<rect x="61.813" y="221.142" style="fill:#68605A;" width="49.951" height="6.284"/>
		<rect x="52.776" y="170.355" style="fill:#8E8985;" width="3.141" height="101.006"/>
		<rect x="117.657" y="170.355" style="fill:#8E8985;" width="3.145" height="101.006"/>
		<path style="fill:#35312D;" d="M32.878,200.58c0.338,0.947,0.679,1.888,1.017,2.834c6.909-2.49,13.945-4.474,21.065-5.96
			c-0.205-0.978-0.406-1.961-0.613-2.941C47.093,196.02,39.918,198.042,32.878,200.58z"/>
		<path style="fill:#35312D;" d="M140.696,200.58c-7.04-2.538-14.215-4.555-21.469-6.066c-0.206,0.98-0.407,1.963-0.614,2.941
			c7.116,1.485,14.151,3.469,21.066,5.954C140.017,202.468,140.358,201.527,140.696,200.58z"/>
		<rect x="61.81" y="227.429" style="fill:#35312D;" width="49.954" height="6.285"/>
		<rect x="85.887" y="164.071" style="fill:#C6C1BD;" width="0.904" height="28.917"/>
		<rect x="86.791" y="164.071" style="fill:#8E8985;" width="0.894" height="28.917"/>
		
			<rect x="43.923" y="164.071" transform="matrix(1 -0.001 0.001 1 -0.1703 0.0666)" style="fill:#F5F5F5;" width="42.868" height="6.284"/>
		<rect x="86.791" y="164.071" style="fill:#C6C1BD;" width="42.864" height="6.284"/>
		<path style="fill:#F5F5F5;" d="M54.347,194.514c0.207,0.98,0.407,1.963,0.613,2.941c10.492-2.185,21.164-3.278,31.831-3.278
			v-3.005C75.918,191.171,65.045,192.285,54.347,194.514z"/>
		<path style="fill:#C6C1BD;" d="M119.227,194.514c-10.693-2.234-21.571-3.342-32.436-3.342v3.005
			c10.667,0,21.326,1.093,31.823,3.278C118.82,196.476,119.021,195.493,119.227,194.514z"/>
		<polygon style="fill:#35312D;" points="117.091,289.179 55.581,289.179 69.416,248.528 102.053,248.528 		"/>
		<path style="fill:#8E8985;" d="M55.581,289.179v11.522c2.647,1.065,5.361,1.999,8.13,2.793v-14.316H55.581z"/>
		<path style="fill:#8E8985;" d="M108.964,289.179v14.571c2.773-0.766,5.479-1.663,8.127-2.699v-11.872H108.964z"/>
	</g>
</g>
<g>
	<path style="opacity:0.2;fill:#39332F;" d="M143.358,272.004h12.63c3.788-0.004,7.355-1.402,7.947-3.134l5.179-15.998
		c1.024,0.519,2.303,0.876,3.328,0.873l13.687,0.001l19.421,10.317h-4.927c-0.857-0.323-1.791-0.528-2.58-0.528h-4.776
		c-1.509,0-1.913,0.733-0.906,1.644c1.015,0.909,3.045,1.646,4.557,1.646h4.789c0.789,0,1.268-0.205,1.407-0.526h16.508
		c0.863,0.322,1.793,0.526,2.579,0.526h4.798c1.5,0,1.887-0.737,0.852-1.646c-1.035-0.911-3.088-1.644-4.584-1.644h-4.785
		c-0.786,0-1.256,0.205-1.39,0.528h-6.354l-19.468-10.316l10.931,0.002c1.491-0.004,1.864-0.739,0.847-1.645
		c-1.024-0.908-3.057-1.642-4.554-1.646l-13.398,0.002l-18.305-9.788l10.784-0.002c1.479,0,1.853-0.734,0.836-1.641
		c-1.014-0.906-3.031-1.641-4.505-1.641H144.57c-1.475,0-1.865,0.73-0.872,1.641c0.99,0.907,2.981,1.641,4.462,1.646l9.39-0.001
		l-0.796,2.726h-3.89c-3.704,0-7.128,1.409-7.672,3.133l-7.555,22.338C137.003,270.602,139.565,272.004,143.358,272.004z
		 M163.805,241.798l3.215,1.728c-0.57-0.081-1.184-0.127-1.834-0.127h-1.842L163.805,241.798z M170.999,246.532
		c0.09-0.307,0.076-0.603-0.019-0.884l8.991,4.812l-10.131,0.002L170.999,246.532z"/>
	<g>
		<polygon style="fill:#F5F5F5;" points="174.202,238.552 181.084,238.552 197.293,219.634 190.41,219.634 		"/>
		<polygon style="fill:#F5F5F5;" points="211.722,264.01 216.859,263.606 196.138,219.085 191.032,219.541 		"/>
		<path style="fill:#35312D;" d="M175.388,219.634c0,1.541,1.246,2.789,2.793,2.796l30.806-0.007c1.548,0,2.801-1.248,2.801-2.789
			c0-1.538-1.253-2.786-2.801-2.786h-30.806C176.634,216.849,175.388,218.089,175.388,219.634z"/>
		<path style="fill:#35312D;" d="M185.743,241.843c0,1.539,1.253,2.793,2.792,2.786l30.813,0.008c1.549-0.008,2.793-1.254,2.8-2.793
			c0-1.541-1.251-2.788-2.8-2.796l-30.813,0.008C186.996,239.048,185.743,240.302,185.743,241.843z"/>
		<path style="fill:#F5F5F5;" d="M196.049,264.05c0,1.051,1.251,1.902,2.8,1.902h30.813c1.538,0,2.791-0.851,2.791-1.902
			s-1.253-1.895-2.791-1.895h-30.813C197.3,262.155,196.055,263,196.049,264.05z"/>
		<path style="fill:#35312D;" d="M221.957,264.05c0,1.539,1.251,2.796,2.791,2.796h4.914c1.538,0,2.791-1.25,2.791-2.796
			c0-1.545-1.253-2.791-2.791-2.791h-4.914C223.208,261.259,221.957,262.505,221.957,264.05z"/>
		<path style="fill:#35312D;" d="M196.049,264.05c0.007,1.546,1.251,2.796,2.8,2.796h4.905c1.548,0,2.801-1.25,2.801-2.796
			c0-1.545-1.253-2.791-2.801-2.791h-4.905C197.3,261.259,196.049,262.505,196.049,264.05z"/>
		<path style="fill:#35312D;" d="M179.984,227.058h12.874c3.867,0,4.969,2.385,2.45,5.321l-32.505,37.94
			c-2.514,2.941-7.69,5.316-11.559,5.324h-12.881c-3.869,0-4.97-2.383-2.451-5.324l32.507-37.94
			C170.938,229.451,176.116,227.058,179.984,227.058z"/>
	</g>
</g>
<g>
	<path style="opacity:0.2;fill:#35312D;" d="M449.998,217.004c-1.739-1.091-3.868-1.738-6.176-1.734l-100.867,0.199
		c-5.845,0.011-6.702,2.739-1.916,6.094l8.681,6.081c4.786,3.355,13.406,6.073,19.25,6.073h74.851c2.308,0,4.436-0.652,6.176-1.746
		V217.004z"/>
	<g>
		<path style="fill:#518DC9;" d="M369.095,167.103c-5.912,0-10.705,5.235-10.705,11.692v33.584h49.66v-45.276H369.095z"/>
		<path style="fill:#518DC9;" d="M449.998,167.575c-0.95-0.302-1.952-0.471-2.991-0.471H408.05v45.276h41.949V167.575z"/>
		<path style="fill:#8AB7DD;" d="M449.998,200.945c-0.951-0.221-1.953-0.345-2.992-0.345h-77.912
			c-5.912,0-10.705,3.829-10.705,8.552v24.565h91.61V200.945z"/>
		<g>
			<rect x="423.109" y="204.942" style="fill:#F5F5F5;" width="2.803" height="11.514"/>
			<rect x="423.109" y="193.427" style="fill:#ECE6E2;" width="2.803" height="11.515"/>
			<path style="fill:#35312D;" d="M417.613,199.049c0,0.853,0.69,1.545,1.544,1.545h10.707c0.854,0,1.546-0.692,1.546-1.545
				c0-0.854-0.692-1.545-1.546-1.545h-10.707C418.303,197.504,417.613,198.194,417.613,199.049z"/>
			<path style="fill:#68605A;" d="M418.994,195.958c0,0.853,0.692,1.545,1.546,1.545h7.941c0.854,0,1.546-0.692,1.546-1.545
				c0-0.854-0.692-1.545-1.546-1.545h-7.941C419.686,194.413,418.994,195.105,418.994,195.958z"/>
			<path style="fill:#35312D;" d="M417.613,210.834c0-0.854,0.69-1.545,1.544-1.545h10.707c0.854,0,1.546,0.692,1.546,1.545
				c0,0.854-0.692,1.546-1.546,1.546h-10.707C418.303,212.379,417.613,211.687,417.613,210.834z"/>
			<path style="fill:#68605A;" d="M418.994,213.924c0-0.853,0.692-1.545,1.546-1.545h7.941c0.854,0,1.546,0.692,1.546,1.545
				c0,0.854-0.692,1.545-1.546,1.545h-7.941C419.686,215.469,418.994,214.778,418.994,213.924z"/>
		</g>
		<g>
			<rect x="373.211" y="203.799" style="fill:#F5F5F5;" width="2.803" height="10.25"/>
			<rect x="373.211" y="193.473" style="fill:#ECE6E2;" width="2.803" height="10.326"/>
			<path style="fill:#68605A;" d="M369.096,196.005c0,0.853,0.693,1.545,1.546,1.545h7.944c0.854,0,1.544-0.692,1.544-1.545
				c0-0.854-0.69-1.546-1.544-1.546h-7.944C369.788,194.459,369.096,195.151,369.096,196.005z"/>
			<path style="fill:#35312D;" d="M369.096,199.042c0,0.853,0.693,1.544,1.546,1.544h7.944c0.854,0,1.544-0.692,1.544-1.544
				c0-0.854-0.69-1.546-1.544-1.546h-7.944C369.788,197.496,369.096,198.188,369.096,199.042z"/>
			<path style="fill:#68605A;" d="M369.096,211.517c0-0.853,0.693-1.545,1.546-1.545h7.944c0.854,0,1.544,0.691,1.544,1.545
				c0,0.854-0.69,1.544-1.544,1.544h-7.944C369.788,213.061,369.096,212.371,369.096,211.517z"/>
			<path style="fill:#35312D;" d="M369.096,208.428c0-0.853,0.693-1.545,1.546-1.545h7.944c0.854,0,1.544,0.692,1.544,1.545
				c0,0.854-0.69,1.545-1.544,1.545h-7.944C369.788,209.972,369.096,209.281,369.096,208.428z"/>
		</g>
		<g>
			<rect x="390.312" y="203.837" style="fill:#F5F5F5;" width="2.803" height="10.25"/>
			<rect x="390.312" y="193.512" style="fill:#ECE6E2;" width="2.803" height="10.325"/>
			<path style="fill:#68605A;" d="M386.196,196.043c0,0.853,0.691,1.545,1.544,1.545h7.944c0.854,0,1.544-0.691,1.544-1.545
				c0-0.854-0.69-1.546-1.544-1.546h-7.944C386.887,194.497,386.196,195.189,386.196,196.043z"/>
			<path style="fill:#35312D;" d="M386.196,199.08c0,0.853,0.691,1.545,1.544,1.545h7.944c0.854,0,1.544-0.691,1.544-1.545
				c0-0.854-0.69-1.545-1.544-1.545h-7.944C386.887,197.535,386.196,198.227,386.196,199.08z"/>
			<path style="fill:#68605A;" d="M386.196,211.555c0-0.853,0.691-1.545,1.544-1.545h7.944c0.854,0,1.544,0.692,1.544,1.545
				c0,0.854-0.69,1.545-1.544,1.545h-7.944C386.887,213.1,386.196,212.409,386.196,211.555z"/>
			<path style="fill:#35312D;" d="M386.196,208.466c0-0.853,0.691-1.545,1.544-1.545h7.944c0.854,0,1.544,0.691,1.544,1.545
				c0,0.854-0.69,1.544-1.544,1.544h-7.944C386.887,210.01,386.196,209.32,386.196,208.466z"/>
		</g>
		<g>
			<rect x="406.65" y="170.239" style="fill:#F5F5F5;" width="2.803" height="13.113"/>
			<rect x="406.65" y="156.865" style="fill:#ECE6E2;" width="2.803" height="13.374"/>
			<path style="fill:#35312D;" d="M401.154,162.487c0,0.853,0.691,1.545,1.544,1.545h10.707c0.854,0,1.546-0.692,1.546-1.545
				c0-0.855-0.692-1.545-1.546-1.545h-10.707C401.845,160.942,401.154,161.632,401.154,162.487z"/>
			<path style="fill:#35312D;" d="M401.154,165.577c0,0.853,0.691,1.545,1.544,1.545h10.707c0.854,0,1.546-0.692,1.546-1.545
				c0-0.855-0.692-1.545-1.546-1.545h-10.707C401.845,164.032,401.154,164.723,401.154,165.577z"/>
			<path style="fill:#68605A;" d="M402.535,159.397c0,0.853,0.693,1.545,1.546,1.545h7.944c0.854,0,1.544-0.692,1.544-1.545
				c0-0.854-0.69-1.546-1.544-1.546h-7.944C403.227,157.851,402.535,158.543,402.535,159.397z"/>
			<path style="fill:#35312D;" d="M401.152,177.73c0-0.854,0.693-1.545,1.546-1.545h10.707c0.854,0,1.544,0.692,1.544,1.545
				c0,0.854-0.69,1.545-1.544,1.545h-10.707C401.845,179.275,401.152,178.584,401.152,177.73z"/>
			<path style="fill:#35312D;" d="M401.152,174.64c0-0.854,0.693-1.545,1.546-1.545h10.707c0.854,0,1.544,0.692,1.544,1.545
				c0,0.854-0.69,1.545-1.544,1.545h-10.707C401.845,176.185,401.152,175.494,401.152,174.64z"/>
			<path style="fill:#68605A;" d="M402.535,180.821c0-0.853,0.693-1.545,1.546-1.545h7.941c0.854,0,1.546,0.692,1.546,1.545
				c0,0.854-0.692,1.545-1.546,1.545h-7.941C403.227,182.365,402.535,181.674,402.535,180.821z"/>
		</g>
		<g>
			<rect x="423.109" y="170.209" style="fill:#F5F5F5;" width="2.803" height="13.113"/>
			<rect x="423.109" y="156.835" style="fill:#ECE6E2;" width="2.803" height="13.374"/>
			<path style="fill:#35312D;" d="M417.613,162.457c0,0.853,0.69,1.545,1.544,1.545h10.707c0.854,0,1.546-0.692,1.546-1.545
				c0-0.855-0.692-1.545-1.546-1.545h-10.707C418.303,160.911,417.613,161.602,417.613,162.457z"/>
			<path style="fill:#35312D;" d="M417.613,165.547c0,0.853,0.69,1.545,1.544,1.545h10.707c0.854,0,1.546-0.692,1.546-1.545
				c0-0.855-0.692-1.545-1.546-1.545h-10.707C418.303,164.002,417.613,164.692,417.613,165.547z"/>
			<path style="fill:#68605A;" d="M418.994,159.366c0,0.853,0.692,1.545,1.546,1.545h7.944c0.854,0,1.544-0.692,1.544-1.545
				c0-0.854-0.69-1.546-1.544-1.546h-7.944C419.686,157.821,418.994,158.513,418.994,159.366z"/>
			<path style="fill:#35312D;" d="M417.611,177.7c0-0.854,0.692-1.545,1.546-1.545h10.707c0.854,0,1.544,0.692,1.544,1.545
				c0,0.854-0.69,1.545-1.544,1.545h-10.707C418.303,179.245,417.611,178.554,417.611,177.7z"/>
			<path style="fill:#35312D;" d="M417.611,174.61c0-0.854,0.692-1.545,1.546-1.545h10.707c0.854,0,1.544,0.692,1.544,1.545
				c0,0.854-0.69,1.545-1.544,1.545h-10.707C418.303,176.155,417.611,175.463,417.611,174.61z"/>
			<path style="fill:#68605A;" d="M418.994,180.79c0-0.853,0.69-1.545,1.544-1.545h7.944c0.854,0,1.544,0.692,1.544,1.545
				c0,0.854-0.69,1.544-1.544,1.544h-7.944C419.684,182.335,418.994,181.644,418.994,180.79z"/>
		</g>
		<g>
			<rect x="439.611" y="170.239" style="fill:#F5F5F5;" width="2.803" height="13.113"/>
			<rect x="439.613" y="156.865" style="fill:#ECE6E2;" width="2.803" height="13.374"/>
			<path style="fill:#35312D;" d="M434.115,162.487c0,0.853,0.692,1.545,1.546,1.545h10.707c0.854,0,1.544-0.692,1.544-1.545
				c0-0.855-0.69-1.545-1.544-1.545h-10.707C434.807,160.942,434.115,161.632,434.115,162.487z"/>
			<path style="fill:#35312D;" d="M434.115,165.577c0,0.853,0.692,1.545,1.546,1.545h10.707c0.854,0,1.544-0.692,1.544-1.545
				c0-0.855-0.69-1.545-1.544-1.545h-10.707C434.807,164.032,434.115,164.723,434.115,165.577z"/>
			<path style="fill:#68605A;" d="M435.498,159.397c0,0.853,0.69,1.545,1.544,1.545h7.943c0.854,0,1.544-0.692,1.544-1.545
				c0-0.854-0.69-1.546-1.544-1.546h-7.943C436.188,157.851,435.498,158.543,435.498,159.397z"/>
			<path style="fill:#35312D;" d="M434.115,177.73c0-0.854,0.692-1.545,1.544-1.545h10.707c0.854,0,1.546,0.692,1.546,1.545
				c0,0.854-0.693,1.545-1.546,1.545h-10.707C434.807,179.275,434.115,178.584,434.115,177.73z"/>
			<path style="fill:#35312D;" d="M434.115,174.64c0-0.854,0.692-1.545,1.544-1.545h10.707c0.854,0,1.546,0.692,1.546,1.545
				c0,0.854-0.693,1.545-1.546,1.545h-10.707C434.807,176.185,434.115,175.494,434.115,174.64z"/>
			<path style="fill:#68605A;" d="M435.496,180.821c0-0.853,0.692-1.545,1.546-1.545h7.943c0.854,0,1.544,0.692,1.544,1.545
				c0,0.854-0.69,1.545-1.544,1.545h-7.943C436.188,182.365,435.496,181.674,435.496,180.821z"/>
		</g>
		<g>
			<rect x="439.612" y="203.67" style="fill:#F5F5F5;" width="2.803" height="13.113"/>
			<rect x="439.614" y="190.296" style="fill:#ECE6E2;" width="2.803" height="13.374"/>
			<path style="fill:#35312D;" d="M434.116,195.918c0,0.853,0.693,1.545,1.544,1.545h10.707c0.856,0,1.546-0.691,1.546-1.545
				c0-0.855-0.69-1.546-1.546-1.546H435.66C434.808,194.372,434.116,195.063,434.116,195.918z"/>
			<path style="fill:#35312D;" d="M434.116,199.008c0,0.853,0.693,1.545,1.544,1.545h10.707c0.856,0,1.546-0.691,1.546-1.545
				c0-0.855-0.69-1.546-1.546-1.546H435.66C434.808,197.462,434.116,198.153,434.116,199.008z"/>
			<path style="fill:#68605A;" d="M435.499,192.827c0,0.853,0.69,1.545,1.544,1.545h7.944c0.854,0,1.544-0.691,1.544-1.545
				c0-0.854-0.69-1.546-1.544-1.546h-7.944C436.189,191.282,435.499,191.974,435.499,192.827z"/>
			<path style="fill:#35312D;" d="M434.116,211.16c0-0.854,0.691-1.545,1.544-1.545h10.707c0.854,0,1.546,0.692,1.546,1.545
				c0,0.854-0.693,1.546-1.546,1.546H435.66C434.806,212.706,434.116,212.014,434.116,211.16z"/>
			<path style="fill:#35312D;" d="M434.116,208.07c0-0.854,0.691-1.544,1.544-1.544h10.707c0.854,0,1.546,0.692,1.546,1.544
				c0,0.854-0.693,1.546-1.546,1.546H435.66C434.806,209.616,434.116,208.924,434.116,208.07z"/>
			<path style="fill:#68605A;" d="M435.497,214.251c0-0.853,0.692-1.545,1.546-1.545h7.944c0.854,0,1.544,0.692,1.544,1.545
				c0,0.854-0.69,1.545-1.544,1.545h-7.944C436.189,215.796,435.497,215.105,435.497,214.251z"/>
		</g>
		<g>
			<rect x="406.649" y="204.941" style="fill:#F5F5F5;" width="2.803" height="11.514"/>
			<rect x="406.649" y="193.426" style="fill:#ECE6E2;" width="2.803" height="11.515"/>
			<path style="fill:#35312D;" d="M401.151,199.048c0,0.853,0.692,1.545,1.546,1.545h10.707c0.854,0,1.544-0.692,1.544-1.545
				c0-0.855-0.69-1.546-1.544-1.546h-10.707C401.843,197.503,401.151,198.193,401.151,199.048z"/>
			<path style="fill:#68605A;" d="M402.534,195.958c0,0.853,0.692,1.545,1.546,1.545h7.941c0.854,0,1.546-0.692,1.546-1.545
				c0-0.854-0.693-1.546-1.546-1.546h-7.941C403.226,194.412,402.534,195.104,402.534,195.958z"/>
			<path style="fill:#35312D;" d="M401.151,210.833c0-0.854,0.692-1.545,1.546-1.545h10.707c0.854,0,1.544,0.692,1.544,1.545
				c0,0.854-0.69,1.546-1.544,1.546h-10.707C401.843,212.378,401.151,211.687,401.151,210.833z"/>
			<path style="fill:#68605A;" d="M402.534,213.923c0-0.853,0.692-1.545,1.546-1.545h7.941c0.854,0,1.546,0.692,1.546,1.545
				c0,0.854-0.693,1.545-1.546,1.545h-7.941C403.226,215.468,402.534,214.777,402.534,213.923z"/>
		</g>
		<g>
			<rect x="373.212" y="171.452" style="fill:#F5F5F5;" width="2.803" height="11.514"/>
			<rect x="373.212" y="159.937" style="fill:#ECE6E2;" width="2.803" height="11.515"/>
			<path style="fill:#35312D;" d="M367.716,165.559c0,0.853,0.691,1.544,1.544,1.544h10.707c0.854,0,1.546-0.692,1.546-1.544
				c0-0.855-0.692-1.546-1.546-1.546H369.26C368.406,164.014,367.716,164.704,367.716,165.559z"/>
			<path style="fill:#68605A;" d="M369.097,162.469c0,0.852,0.693,1.544,1.546,1.544h7.944c0.854,0,1.544-0.692,1.544-1.544
				c0-0.854-0.69-1.546-1.544-1.546h-7.944C369.789,160.923,369.097,161.615,369.097,162.469z"/>
			<path style="fill:#35312D;" d="M367.716,177.344c0-0.854,0.691-1.544,1.544-1.544h10.707c0.854,0,1.546,0.692,1.546,1.544
				c0,0.854-0.692,1.546-1.546,1.546H369.26C368.406,178.889,367.716,178.198,367.716,177.344z"/>
			<path style="fill:#68605A;" d="M369.097,180.434c0-0.853,0.693-1.545,1.546-1.545h7.944c0.854,0,1.544,0.692,1.544,1.545
				c0,0.854-0.69,1.545-1.544,1.545h-7.944C369.789,181.979,369.097,181.288,369.097,180.434z"/>
		</g>
		<g>
			<rect x="390.312" y="171.452" style="fill:#F5F5F5;" width="2.803" height="11.514"/>
			<rect x="390.312" y="159.938" style="fill:#ECE6E2;" width="2.803" height="11.515"/>
			<path style="fill:#35312D;" d="M384.813,165.559c0,0.853,0.693,1.545,1.546,1.545h10.707c0.854,0,1.544-0.692,1.544-1.545
				c0-0.854-0.69-1.545-1.544-1.545h-10.707C385.506,164.014,384.813,164.705,384.813,165.559z"/>
			<path style="fill:#68605A;" d="M386.196,162.469c0,0.853,0.691,1.545,1.544,1.545h7.944c0.854,0,1.544-0.692,1.544-1.545
				c0-0.854-0.69-1.545-1.544-1.545h-7.944C386.887,160.924,386.196,161.615,386.196,162.469z"/>
			<path style="fill:#35312D;" d="M384.813,177.344c0-0.854,0.693-1.545,1.546-1.545h10.707c0.854,0,1.544,0.692,1.544,1.545
				c0,0.854-0.69,1.546-1.544,1.546h-10.707C385.506,178.89,384.813,178.198,384.813,177.344z"/>
			<path style="fill:#68605A;" d="M386.196,180.434c0-0.853,0.691-1.544,1.544-1.544h7.944c0.854,0,1.544,0.692,1.544,1.544
				c0,0.854-0.69,1.545-1.544,1.545h-7.944C386.887,181.979,386.196,181.288,386.196,180.434z"/>
		</g>
	</g>
</g>
<g>
	<rect x="84.624" y="13.369" style="fill:#35312D;" width="0.629" height="14.119"/>
	<polygon style="fill:#FFFFFF;" points="64.445,37.404 84.938,37.404 84.938,26.39 	"/>
	<polygon style="fill:#F4F0ED;" points="84.938,26.39 84.938,37.404 105.432,37.404 	"/>
	<path style="fill:#FFFFFF;" d="M80.847,8.982c0.297,2.803,2.016,4.953,4.092,4.953V8.982H80.847z"/>
	<path style="fill:#F4F0ED;" d="M89.03,8.982h-4.092v4.953C87.015,13.935,88.733,11.785,89.03,8.982z"/>
</g>
<g>
	<rect x="224.686" y="13.369" style="fill:#35312D;" width="0.629" height="14.119"/>
	<polygon style="fill:#FFFFFF;" points="204.507,37.404 225,37.404 225,26.39 	"/>
	<polygon style="fill:#F4F0ED;" points="225,26.39 225,37.404 245.493,37.404 	"/>
	<path style="fill:#FFFFFF;" d="M220.908,8.982c0.297,2.803,2.016,4.953,4.092,4.953V8.982H220.908z"/>
	<path style="fill:#F4F0ED;" d="M229.092,8.982H225v4.953C227.076,13.935,228.795,11.785,229.092,8.982z"/>
</g>
<g>
	<rect x="364.747" y="13.369" style="fill:#35312D;" width="0.629" height="14.119"/>
	<polygon style="fill:#FFFFFF;" points="344.568,37.405 365.061,37.405 365.061,26.391 	"/>
	<polygon style="fill:#F4F0ED;" points="365.061,26.391 365.061,37.405 385.555,37.405 	"/>
	<path style="fill:#FFFFFF;" d="M360.97,8.982c0.297,2.803,2.016,4.953,4.092,4.953V8.982H360.97z"/>
	<path style="fill:#F4F0ED;" d="M369.153,8.982h-4.092v4.953C367.138,13.935,368.856,11.785,369.153,8.982z"/>
</g>
<g>
	<path style="opacity:0.2;fill:#39332F;" d="M310.585,245.117l-1.613-1.414c-0.495-0.432-1.436-0.783-2.101-0.783h-6.356
		c-0.541,0-0.715,0.235-0.509,0.551h-38.7l-8.137-7.329h6.924c1.621,0,1.992-0.847,0.826-1.893
		c-1.167-1.043-3.425-1.892-5.043-1.892h-6.906l-3.674-3.31c2.656-1.703,2.155-4.904-1.942-8.577
		c-2.238-2.007-5.236-3.861-8.527-5.419c-1.145-1.222-2.948-2.294-4.413-3.132v-23.339h3.125h2.84v-3.079v-21.298
		c0-1.564-0.636-1.919-1.421-1.919c-0.783,0-1.419,0.354-1.419,1.919v21.298h-8.891l-0.001-21.298c0-1.564-0.635-1.919-1.418-1.92
		c-0.783-0.001-1.418,0.353-1.418,1.917l-0.001,21.3v3.079h2.839h3.125v22.126c-1.775-0.639-3.68-1.005-5.674-1.005
		c-1.65,0-3.243,0.248-4.749,0.692v-12.601l2.479-0.002v-18.03l-7.597-0.001v18.037l2.476-0.002v13.64
		c-1.837,0.904-3.48,2.138-4.865,3.617c0.153,1.555,1.279,3.415,3.474,5.419c5.972,5.457,17.586,9.882,25.937,9.881
		c1.797,0,3.274-0.214,4.456-0.591l2.879,2.596h-8.856c-1.619,0-1.999,0.849-0.849,1.892c1.148,1.046,3.397,1.893,5.02,1.893h8.878
		l8.126,7.329h-16.1c-0.502-0.315-1.199-0.551-1.739-0.551h-6.355c-0.668,0-0.826,0.351-0.353,0.783l1.541,1.414
		c0.472,0.432,1.396,0.783,2.064,0.783h6.369c0.541,0,0.726-0.235,0.534-0.553h57.27c0.516,0.318,1.223,0.553,1.765,0.553h6.369
		C310.936,245.899,311.078,245.548,310.585,245.117z"/>
	<g>
		<rect x="251.369" y="164.797" style="fill:#FFFFFF;" width="2.643" height="50.255"/>
		<path style="fill:#68605A;" d="M241.976,202.71c0,9.268,7.514,16.785,16.785,16.784v-33.575
			C249.491,185.919,241.976,193.436,241.976,202.71z"/>
		<path style="fill:#39332F;" d="M275.548,202.71c0-9.271-7.514-16.79-16.787-16.791v33.575
			C268.034,219.495,275.548,211.975,275.548,202.71z"/>
		<rect x="258.472" y="161.719" style="fill:#FFFFFF;" width="14.569" height="3.079"/>
		<path style="fill:#39332F;" d="M270.201,164.798v-24.377c0-1.564,0.637-1.919,1.419-1.919c0.784,0,1.421,0.354,1.421,1.919v24.377
			H270.201z"/>
		<path style="fill:#39332F;" d="M258.472,164.798l0.001-24.38c0-1.564,0.635-1.918,1.418-1.917c0.783,0.001,1.418,0.355,1.418,1.92
			l0.001,24.377H258.472z"/>
		<rect x="264.435" y="164.798" style="fill:#68605A;" width="2.641" height="78.088"/>
		<rect x="248.894" y="155.978" style="fill:#39332F;" width="7.597" height="18.034"/>
		<rect x="250.498" y="158.748" style="fill:#FFFFFF;" width="4.382" height="10.411"/>
		<path style="fill:#39332F;" d="M274.732,229.326h-20.114c-1.794,0-3.25-1.439-3.25-3.213c0-1.774,1.455-3.213,3.25-3.213h20.114
			c1.793,0,3.248,1.439,3.248,3.213C277.98,227.887,276.524,229.326,274.732,229.326z"/>
		<path style="fill:#39332F;" d="M311.758,238.27h-20.111c-1.796,0-3.25-1.439-3.251-3.212c0-1.776,1.454-3.215,3.248-3.215h20.115
			c1.794,0,3.249,1.439,3.249,3.215C315.007,236.832,313.552,238.27,311.758,238.27z"/>
		<rect x="241.976" y="241.776" style="fill:#FFFFFF;" width="72.423" height="3.187"/>
		<path style="fill:#39332F;" d="M246.802,244.57c0,0.733-0.595,1.328-1.328,1.328h-6.995c-0.734,0-1.329-0.595-1.329-1.328v-2.399
			c0-0.736,0.595-1.331,1.329-1.331h6.995c0.733,0,1.328,0.595,1.328,1.331V244.57z"/>
		<path style="fill:#39332F;" d="M319.225,244.57c0,0.733-0.595,1.328-1.328,1.328h-6.995c-0.735,0-1.329-0.595-1.329-1.328v-2.399
			c0-0.736,0.595-1.331,1.329-1.331h6.995c0.733,0,1.328,0.595,1.328,1.331V244.57z"/>
	</g>
</g>
<g>
	<path style="opacity:0.2;fill:#39332F;" d="M317.866,280.831h6.46c0.397,0,0.519-0.173,0.356-0.406h74.119
		c0.383,0.232,0.915,0.406,1.311,0.406h6.46c0.484,0,0.573-0.25,0.199-0.558l-2.179-1.797c-0.376-0.31-1.07-0.56-1.554-0.56h-6.446
		c-0.396,0-0.508,0.173-0.332,0.406h-5.929c-1.559-4.072-7.433-9.399-13.977-12.802c-4.762-2.479-10.217-4.26-15.587-5.279
		l-8.075-10.041c1.044,0.041,2.014,0.066,2.841,0.066c5.482,0,8.759-0.967,7.319-2.156c-1.443-1.191-7.039-2.157-12.507-2.157
		c-5.466,0-14.592,0.966-13.168,2.157c0.999,0.84,7.001,1.567,12.378,1.923l5.355,6.997l-1.507-0.23l-0.225-0.301
		c-0.212-0.281-0.807-0.573-1.336-0.652l-4.472-0.687c-0.529-0.081-0.782,0.082-0.573,0.362l1.461,1.947
		c0.215,0.281,0.808,0.572,1.336,0.653l4.482,0.685c0.531,0.082,0.785-0.081,0.57-0.362l-0.133-0.176l1.52,0.231l0.864,1.134
		c-6.807-0.824-13.181-0.329-17.464,1.687c-3.919,1.835-5.427,4.608-4.746,7.68l-12.913-8.22c-1.065-0.677-2.6-1.084-3.436-0.908
		l-0.166,0.035l-19.73-12.576l13.322,2.256c1.354,0.227,2.057-0.162,1.57-0.875c-0.482-0.708-1.973-1.468-3.323-1.698l-22.476-3.814
		l-19.592-11.888c-1.168-0.712-2.767-1.101-3.573-0.874c-0.801,0.23-0.508,0.992,0.655,1.701l20.322,12.352
		c0.684,0.482,1.688,0.902,2.626,1.063l5.191,0.882l21.982,14.105c-0.864,0.18-0.688,0.87,0.372,1.547l25.306,16.134
		c0.054,0.035,0.116,0.065,0.17,0.099h-18.744c-0.375-0.232-0.896-0.406-1.294-0.406h-6.446c-0.48,0-0.581,0.25-0.225,0.56
		l2.067,1.797C316.708,280.581,317.385,280.831,317.866,280.831z"/>
	<g>
		<path style="fill:#F5F5F5;" d="M383.481,241.303c-0.065,0.236,0.266,0.539,0.743,0.678l4.049,1.162
			c0.478,0.139,0.921,0.054,0.984-0.18l0.474-1.638c0.07-0.238-0.26-0.541-0.738-0.676l-4.054-1.165
			c-0.478-0.138-0.916-0.056-0.984,0.18L383.481,241.303z"/>
		<polygon style="fill:#F5F5F5;" points="377.231,279.032 381.523,280.142 395.984,224.045 392.973,223.267 		"/>
		<polygon style="fill:#F5F5F5;" points="351.495,274.766 347.197,275.88 332.742,219.783 336.947,219.388 		"/>
		<path style="fill:#35312D;" d="M345.117,276.401c0.295,1.155,1.473,1.844,2.618,1.544l4.424-1.146
			c1.146-0.298,1.84-1.47,1.54-2.622l-7.097-27.403c-0.3-1.15-1.472-1.84-2.621-1.543l-4.424,1.148
			c-1.149,0.296-1.843,1.468-1.544,2.618L345.117,276.401z"/>
		<path style="fill:#7CB5ED;" d="M365.391,247.691c14.463-6.723,30.206-3.527,35.159,7.135c2.686,5.779,2.084,14.825-1.57,21.743
			h-51.745C344.49,266.313,352.08,253.879,365.391,247.691z"/>
		<rect x="320.323" y="276.569" style="fill:#35312D;" width="89.537" height="3.573"/>
		<path style="fill:#F5F5F5;" d="M405.394,279.882c0,0.525,0.424,0.949,0.948,0.949h7.033c0.527,0,0.954-0.425,0.954-0.949v-3.051
			c0-0.527-0.427-0.951-0.954-0.951h-7.033c-0.523,0-0.948,0.424-0.948,0.951V279.882z"/>
		<path style="fill:#F5F5F5;" d="M315.857,279.882c0,0.525,0.425,0.949,0.948,0.949h7.033c0.527,0,0.951-0.425,0.951-0.949v-3.051
			c0-0.527-0.424-0.951-0.951-0.951h-7.033c-0.523,0-0.948,0.424-0.948,0.951V279.882z"/>
		<path style="fill:#35312D;" d="M321.907,195.24c1.206-0.387,2.503,0.274,2.892,1.482l6.529,20.194l20.118,6.478
			c1.206,0.389,1.87,1.681,1.481,2.885c-0.39,1.209-1.678,1.869-2.889,1.485l-21.268-6.852c-0.841-0.269-1.417-0.985-1.557-1.803
			l-6.78-20.979C320.045,196.925,320.704,195.632,321.907,195.24z"/>
		<path style="fill:#35312D;" d="M380.271,225.254c-0.003,2.021,11.458,3.662,17.555,3.662c6.097,0,11.04-1.641,11.04-3.662
			c0-2.025-4.943-3.663-11.04-3.663C391.729,221.591,380.268,223.229,380.271,225.254z"/>
		
			<ellipse transform="matrix(0.7071 -0.7071 0.7071 0.7071 -74.4821 343.3596)" style="fill:#35312D;" cx="377.231" cy="261.588" rx="8.832" ry="8.832"/>
		<path style="fill:#C6C1BD;" d="M374.001,261.588c0,1.783,1.448,3.228,3.23,3.228c1.78,0,3.224-1.446,3.224-3.228
			c0-1.781-1.444-3.225-3.224-3.225C375.449,258.362,374.001,259.807,374.001,261.588z"/>
		<path style="fill:#F5F5F5;" d="M376.041,262.672c0.581,0.609,1.543,0.63,2.154,0.05l11.875-11.328
			c0.611-0.58,0.63-1.546,0.049-2.154c-0.581-0.607-1.54-0.631-2.151-0.052l-11.875,11.334
			C375.485,261.1,375.46,262.064,376.041,262.672z"/>
		<path style="fill:#35312D;" d="M383.284,248.279c-0.317,0.878,0.143,1.847,1.019,2.161l7.894,2.819
			c0.878,0.314,1.848-0.141,2.165-1.025c0.313-0.877-0.143-1.845-1.025-2.159l-7.894-2.821
			C384.562,246.94,383.592,247.4,383.284,248.279z"/>
		<path style="fill:#35312D;" d="M380.192,241.149c-0.132,0.478,0.138,0.975,0.617,1.112l4.053,1.16
			c0.479,0.139,0.976-0.138,1.108-0.615l0.949-3.305c0.138-0.477-0.136-0.974-0.614-1.109l-4.049-1.165
			c-0.479-0.138-0.976,0.14-1.114,0.615L380.192,241.149z"/>
	</g>
</g>
<g>
	<path style="opacity:0.2;fill:#39332F;" d="M332.102,354.671h-2.992l-11.17-9.028c-1.834-1.482-5.215-2.684-7.549-2.684
		c-2.337,0.001-2.751,1.202-0.926,2.684l-3.084-2.504c-1.826-1.483-5.194-2.685-7.525-2.685c-2.332,0-2.749,1.202-0.932,2.685
		l-3.245-2.65c-1.815-1.482-5.175-2.685-7.504-2.685c-2.327,0-2.747,1.203-0.941,2.685l-3.229-2.65
		c-1.808-1.483-5.152-2.684-7.475-2.684c-2.321,0-2.747,1.201-0.948,2.684l20.409,16.831h-8.24l-15.464-12.816
		c-1.905-1.578-5.275-2.852-7.625-2.906c-0.05-0.003-0.108-0.011-0.158-0.011c-2.355,0-2.696,1.305-0.76,2.917l15.383,12.816
		h-44.372h-43.095l-14.569-12.816c-1.833-1.612-5.221-2.916-7.579-2.917c-2.355,0-2.79,1.305-0.967,2.917l14.487,12.816h-9.866
		l-18.905-16.831c-1.666-1.483-4.9-2.684-7.221-2.684c-2.322,0-2.862,1.201-1.204,2.684l2.958,2.65
		c-1.655-1.482-4.885-2.685-7.211-2.685c-2.328,0-2.879,1.203-1.233,2.685l2.943,2.65c-1.647-1.483-4.87-2.685-7.201-2.685
		c-2.332,0-2.894,1.202-1.256,2.685l2.768,2.504c-1.639-1.482-4.855-2.682-7.192-2.684c-2.333,0-2.91,1.202-1.282,2.684l9.916,9.028
		h-2.636c-3.217,0-4.722,1.007-3.366,2.248c1.357,1.243,5.07,2.249,8.298,2.249h2.645l9.916,9.028
		c1.628,1.483,4.883,2.683,7.263,2.683c2.385,0,2.99-1.201,1.351-2.683l2.769,2.505c1.639,1.483,4.899,2.685,7.286,2.685
		c2.389,0,2.988-1.202,1.341-2.685l2.941,2.648c1.648,1.483,4.922,2.684,7.315,2.685c2.392,0,2.991-1.202,1.334-2.685l2.961,2.65
		c1.657,1.484,4.939,2.685,7.337,2.685c2.395,0,2.992-1.201,1.326-2.685l-18.906-16.831h9.898l59.54,52.67h4.351h0.142h4.492h8.452
		l9.109,15.89l11.675,10.275c5.062,0.949,10.09,1.783,15.068,2.492l-14.613-12.766h33.757h33.76l15.48,12.993
		c3.361-0.681,6.472-1.483,9.348-2.405l-12.702-10.588l-28.791-15.89h10.562h4.644h4.338l-63.552-52.67h8.266L320.855,376
		c1.799,1.484,5.199,2.685,7.594,2.685c2.397,0,2.874-1.201,1.066-2.685l-3.23-2.65c1.808,1.483,5.211,2.685,7.605,2.685
		c2.391-0.001,2.86-1.202,1.044-2.685l-3.244-2.648c1.818,1.483,5.223,2.685,7.611,2.685c2.387,0,2.843-1.202,1.017-2.685
		l-3.086-2.505c1.827,1.483,5.234,2.683,7.621,2.683c2.381,0,2.828-1.201,0.992-2.683l-11.169-9.028h3.001
		c3.224,0,4.588-1.006,3.042-2.249C339.175,355.678,335.315,354.671,332.102,354.671z M334.754,401.847h-16.561l-18.585-10.371
		h-22.862h-24.614l6.133,10.371h-13.981l-48.512-42.678h43.236h44.518L334.754,401.847z"/>
	<g>
		<path style="fill:#68605A;" d="M229.405,294.942c-3.44,0-6.225,1.71-6.225,3.819c0,2.111,2.785,3.82,6.225,3.82h105.149v-7.639
			H229.405z"/>
		<path style="fill:#35312D;" d="M445.927,298.761c0-2.109-2.788-3.819-6.223-3.819H334.553v7.639h105.151
			C443.14,302.581,445.927,300.872,445.927,298.761z"/>
		<rect x="283.719" y="375.068" style="fill:#F5F5F5;" width="51.522" height="16.97"/>
		<rect x="335.241" y="375.068" style="fill:#C6C1BD;" width="51.518" height="16.97"/>
		<path style="fill:#8E8985;" d="M287.967,419.027v17.451c4.012,1.612,8.12,3.027,12.315,4.232v-21.682H287.967z"/>
		<path style="fill:#8E8985;" d="M368.828,419.027v22.069c4.2-1.158,8.298-2.519,12.31-4.086v-17.983H368.828z"/>
		<path style="fill:#68605A;" d="M259.584,266.356v64.812c0,2.519,2.04,4.559,4.559,4.559v-73.931
			C261.624,261.797,259.584,263.837,259.584,266.356z"/>
		<path style="fill:#35312D;" d="M268.705,331.168v-64.812c0-2.519-2.045-4.559-4.562-4.559v73.931
			C266.66,335.727,268.705,333.688,268.705,331.168z"/>
		<path style="fill:#518DC9;" d="M250.461,270.855v55.812c0,2.519,2.042,4.558,4.561,4.559v-64.932
			C252.504,266.296,250.461,268.338,250.461,270.855z"/>
		<path style="fill:#35312D;" d="M259.584,326.667v-55.812c0-2.517-2.042-4.56-4.559-4.56c-0.003,0-0.003,64.932-0.003,64.932
			C257.542,331.226,259.584,329.186,259.584,326.667z"/>
		<path style="fill:#7CB5ED;" d="M241.343,275.355v46.815c0,2.519,2.04,4.559,4.559,4.559v-55.933
			C243.383,270.796,241.343,272.836,241.343,275.355z"/>
		<path style="fill:#35312D;" d="M250.461,322.169v-46.815c0-2.519-2.04-4.559-4.559-4.559v55.933
			C248.421,326.728,250.461,324.689,250.461,322.169z"/>
		<path style="fill:#68605A;" d="M236.782,275.051c-2.514,0-4.559,2.04-4.559,4.558v38.304c0,2.519,2.045,4.559,4.559,4.559
			C236.784,322.472,236.784,275.051,236.782,275.051z"/>
		<path style="fill:#35312D;" d="M241.343,317.913v-38.304c0-2.518-2.04-4.557-4.559-4.558v47.421
			C239.303,322.47,241.343,320.432,241.343,317.913z"/>
		<path style="fill:#68605A;" d="M409.144,266.356v64.812c0,2.519-2.04,4.559-4.559,4.559v-73.931
			C407.104,261.797,409.144,263.837,409.144,266.356z"/>
		<path style="fill:#35312D;" d="M400.026,331.168v-64.812c0-2.519,2.042-4.559,4.559-4.559v73.931
			C402.068,335.727,400.026,333.688,400.026,331.168z"/>
		<path style="fill:#518DC9;" d="M418.267,270.855v55.812c0,2.519-2.043,4.558-4.562,4.559v-64.932
			C416.224,266.296,418.267,268.338,418.267,270.855z"/>
		<path style="fill:#35312D;" d="M409.144,326.667v-55.812c0-2.517,2.043-4.56,4.561-4.56v64.932
			C411.186,331.226,409.144,329.186,409.144,326.667z"/>
		<path style="fill:#7CB5ED;" d="M427.385,275.355v46.815c0,2.519-2.04,4.559-4.559,4.559v-55.933
			C425.345,270.796,427.385,272.836,427.385,275.355z"/>
		<path style="fill:#35312D;" d="M418.267,322.169v-46.815c0-2.519,2.04-4.559,4.559-4.559v55.933
			C420.307,326.728,418.267,324.689,418.267,322.169z"/>
		<path style="fill:#68605A;" d="M431.947,275.051c2.517,0,4.559,2.04,4.559,4.558v38.304c0,2.519-2.042,4.559-4.559,4.559V275.051z
			"/>
		<path style="fill:#35312D;" d="M427.385,317.913v-38.304c0-2.518,2.04-4.557,4.561-4.558v47.421
			C429.425,322.47,427.385,320.432,427.385,317.913z"/>
		<path style="fill:#35312D;" d="M283.865,268.22c-2.547,0-4.612,2.216-4.612,4.954v118.863h4.612V268.22z"/>
		<path style="fill:#68605A;" d="M288.477,273.174c0-2.739-2.062-4.953-4.612-4.954v123.818h4.612V273.174z"/>
		<path style="fill:#68605A;" d="M386.605,268.22c-2.547,0-4.609,2.216-4.609,4.954v118.863h4.767v-123.8
			C386.71,268.235,386.66,268.22,386.605,268.22z"/>
		<path style="fill:#35312D;" d="M391.216,273.174c0-2.681-1.982-4.845-4.454-4.937v123.8h4.454V273.174z"/>
		<polygon style="fill:#68605A;" points="308.923,357.454 287.967,419.027 334.553,419.027 334.553,357.454 		"/>
		<polygon style="fill:#35312D;" points="358.36,357.454 334.553,357.454 334.553,419.027 381.137,419.027 		"/>
	</g>
</g>
<g>
	<path style="opacity:0.2;fill:#39332F;" d="M204.483,411.307h-11.119c-0.689,0-0.968,0.273-0.751,0.645h-32.328
		c-0.023-0.053-0.032-0.102-0.066-0.156l-15.643-25.62c-0.664-1.074-2.886-2.172-4.945-2.447l-0.065-0.009l-14.114-22.399l5.543-1.4
		c1.001-0.253,1.159-0.922,0.554-1.686l-10.83-19.612c-0.637-1.129-2.908-2.337-5.081-2.702c-2.168-0.363-3.419,0.255-2.789,1.385
		l10.325,18.878l-24.032,6.057c-1.45,0.363-1.212,1.573,0.533,2.698c1.752,1.13,4.348,1.748,5.814,1.388l14.313-3.583l12.295,19.968
		l-0.409-0.056c-2.065-0.278-3.199,0.368-2.549,1.442l7.892,13.05c-10.025-4.875-22.685-9.276-36.026-12.192
		c-14.584-3.2-27.221-3.992-35.846-2.685l-2.591-1.793l1.75-0.369l0.408,0.281c0.644,0.446,1.662,0.703,2.27,0.574l5.167-1.086
		c0.606-0.128,0.563-0.593-0.083-1.039l-4.519-3.092c-0.65-0.443-1.669-0.704-2.271-0.573l-5.131,1.089
		c-0.608,0.126-0.574,0.591,0.075,1.037l0.692,0.477l-1.732,0.366l-15.979-11.109c7.814-0.565,15.351-1.721,14.025-3.054
		c-1.867-1.894-20.703-3.426-29.916-3.426c-9.212,0-15.228,1.532-13.428,3.426c1.795,1.888,10.774,3.422,20.043,3.422
		c1.399,0,2.95-0.035,4.569-0.101l22.227,15.925c-5.498,1.617-8.388,4.461-7.629,8.399c1.005,5.404,10.063,13.86,22.047,20.328
		H64.94c-0.535-0.371-1.365-0.645-2.054-0.645H51.765c-0.831,0-1.136,0.397-0.671,0.889l2.689,2.852
		c0.462,0.49,1.519,0.889,2.354,0.889h11.166c0.691,0,1.002-0.273,0.828-0.644h128.048c0.576,0.37,1.439,0.644,2.132,0.644h11.164
		c0.836,0,1.077-0.398,0.549-0.889l-3.08-2.852C206.413,411.704,205.316,411.307,204.483,411.307z"/>
	<g>
		<path style="fill:#F5F5F5;" d="M104.057,353.171c0.102,0.375-0.42,0.855-1.18,1.075l-6.43,1.848
			c-0.758,0.219-1.461,0.085-1.563-0.286l-0.75-2.602c-0.109-0.378,0.413-0.859,1.171-1.073l6.438-1.85
			c0.758-0.218,1.453-0.089,1.564,0.286L104.057,353.171z"/>
		<polygon style="fill:#F5F5F5;" points="113.982,413.076 107.168,414.842 84.204,325.764 88.985,324.531 		"/>
		<polygon style="fill:#F5F5F5;" points="154.847,406.305 161.669,408.075 184.625,318.999 177.946,318.374 		"/>
		<path style="fill:#35312D;" d="M164.974,408.903c-0.468,1.829-2.336,2.923-4.156,2.45l-7.025-1.821
			c-1.82-0.472-2.921-2.331-2.445-4.16l11.267-43.515c0.477-1.824,2.337-2.923,4.166-2.449l7.023,1.824
			c1.822,0.468,2.923,2.332,2.447,4.156L164.974,408.903z"/>
		<path style="fill:#7CB5ED;" d="M132.782,363.314c-22.965-10.674-47.961-5.603-55.83,11.329c-4.266,9.178-3.305,23.54,2.494,34.525
			h82.161C165.966,392.885,153.917,373.14,132.782,363.314z"/>
		<rect x="62.168" y="409.168" style="fill:#35312D;" width="142.172" height="5.674"/>
		<path style="fill:#F5F5F5;" d="M69.263,414.427c0,0.832-0.672,1.509-1.509,1.509H56.588c-0.835,0-1.516-0.677-1.516-1.509v-4.844
			c0-0.836,0.681-1.509,1.516-1.509h11.166c0.837,0,1.509,0.673,1.509,1.509V414.427z"/>
		<path style="fill:#F5F5F5;" d="M211.434,414.427c0,0.832-0.672,1.509-1.508,1.509h-11.164c-0.838,0-1.509-0.677-1.509-1.509
			v-4.844c0-0.836,0.671-1.509,1.509-1.509h11.164c0.836,0,1.508,0.673,1.508,1.509V414.427z"/>
		<path style="fill:#35312D;" d="M201.825,280.031c-1.914-0.617-3.97,0.434-4.588,2.352l-10.369,32.064l-31.941,10.286
			c-1.914,0.618-2.969,2.673-2.353,4.583c0.617,1.919,2.665,2.969,4.587,2.356l33.771-10.878c1.336-0.43,2.25-1.565,2.469-2.863
			l10.768-33.31C204.786,282.703,203.739,280.652,201.825,280.031z"/>
		<path style="fill:#35312D;" d="M109.153,327.687c0.008,3.207-18.191,5.813-27.873,5.813c-9.681,0-17.533-2.605-17.533-5.813
			c0-3.216,7.852-5.817,17.533-5.817C90.961,321.87,109.161,324.471,109.153,327.687z"/>
		<path style="fill:#35312D;" d="M128.007,385.38c0,7.747-6.282,14.025-14.025,14.025c-7.743,0-14.026-6.278-14.026-14.025
			c0-7.748,6.283-14.025,14.026-14.025C121.725,371.355,128.007,377.632,128.007,385.38z"/>
		<path style="fill:#C6C1BD;" d="M119.108,385.38c0,2.829-2.297,5.125-5.126,5.125s-5.118-2.296-5.118-5.125
			c0-2.828,2.289-5.122,5.118-5.122S119.108,382.552,119.108,385.38z"/>
		<path style="fill:#F5F5F5;" d="M115.872,387.103c-0.922,0.965-2.452,1-3.422,0.081l-18.855-17.99
			c-0.968-0.922-0.999-2.454-0.077-3.419c0.922-0.964,2.445-1.004,3.415-0.081l18.855,17.994
			C116.755,384.606,116.793,386.138,115.872,387.103z"/>
		<path style="fill:#35312D;" d="M104.371,364.249c0.5,1.393-0.227,2.934-1.617,3.43l-12.534,4.478
			c-1.398,0.5-2.938-0.227-3.438-1.626c-0.5-1.395,0.227-2.931,1.625-3.431l12.534-4.477
			C102.338,362.122,103.878,362.849,104.371,364.249z"/>
		<path style="fill:#35312D;" d="M109.278,352.926c0.211,0.758-0.219,1.547-0.976,1.765l-6.438,1.844
			c-0.758,0.22-1.547-0.218-1.759-0.976l-1.508-5.247c-0.219-0.759,0.219-1.548,0.977-1.762l6.43-1.85
			c0.759-0.222,1.548,0.22,1.768,0.974L109.278,352.926z"/>
	</g>
</g>
<g>
	<path style="opacity:0.2;fill:#35312D;" d="M168.415,301.081l-1.602,0.007l-2.762-2.672c-0.917-0.887-2.76-1.597-4.119-1.587
		c-1.36,0.009-1.733,0.732-0.835,1.616l-1.454-1.431c-0.898-0.885-2.721-1.594-4.072-1.584c-1.352,0.011-1.733,0.734-0.854,1.617
		l4.076,4.085l-7.05,0.031l-7.049,0.031l-3.836-4.056c-0.829-0.875-2.597-1.577-3.946-1.566c-1.354,0.01-1.791,0.727-0.98,1.6
		l1.311,1.413c-0.81-0.873-2.567-1.573-3.926-1.563c-1.36,0.01-1.821,0.722-1.029,1.593l2.386,2.625l-1.6,0.007l2.581,2.857
		l1.618-0.004l2.384,2.622c0.792,0.871,2.591,1.577,4.016,1.576c1.424-0.001,1.922-0.711,1.111-1.584l1.313,1.415
		c0.811,0.874,2.626,1.58,4.062,1.58c1.432,0,1.924-0.708,1.095-1.584l-3.837-4.056l7.133-0.021l7.135-0.021l4.076,4.085
		c0.88,0.882,2.754,1.596,4.188,1.596s1.867-0.716,0.969-1.6l-1.456-1.434c0.898,0.885,2.781,1.602,4.206,1.601
		c1.426-0.001,1.835-0.722,0.918-1.608l-2.76-2.669l1.62-0.005L168.415,301.081z"/>
	<g>
		<rect x="157.989" y="295.903" style="fill:#8AB7DD;" width="19.336" height="4.706"/>
		<rect x="138.655" y="295.903" style="fill:#518DC9;" width="19.334" height="4.706"/>
		<path style="fill:#35312D;" d="M148.097,309.839c1.432,0,2.594-1.159,2.594-2.593v-17.979c0-1.434-1.162-2.596-2.594-2.596
			c-1.436,0-2.596,1.162-2.596,2.596v17.979C145.501,308.68,146.661,309.839,148.097,309.839z"/>
		<path style="fill:#68605A;" d="M142.907,307.521c1.432,0,2.594-1.163,2.594-2.597v-13.339c0-1.433-1.162-2.593-2.594-2.593
			c-1.434,0-2.596,1.16-2.596,2.593v13.339C140.311,306.357,141.474,307.521,142.907,307.521z"/>
		<path style="fill:#35312D;" d="M167.886,309.839c-1.434,0-2.596-1.159-2.596-2.593v-17.979c0-1.434,1.162-2.596,2.596-2.596
			s2.594,1.162,2.594,2.596v17.979C170.479,308.68,169.319,309.839,167.886,309.839z"/>
		<path style="fill:#68605A;" d="M173.073,307.521c-1.434,0-2.594-1.163-2.594-2.597v-13.339c0-1.433,1.16-2.593,2.594-2.593
			s2.594,1.16,2.594,2.593v13.339C175.667,306.357,174.507,307.521,173.073,307.521z"/>
	</g>
</g>
</svg>
